<?xml version="1.0" encoding="UTF-8"?>
<svg width="144px" height="161px" viewBox="0 0 144 161" version="1.1" xmlns="http://www.w3.org/2000/svg" xmlns:xlink="http://www.w3.org/1999/xlink">
    <!-- Generator: Sketch 59.1 (86144) - https://sketch.com -->
    <title>Group 11</title>
    <desc>Created with Sketch.</desc>
    <g id="Page-1" stroke="none" stroke-width="1" fill="none" fill-rule="evenodd">
        <g id="Careers" transform="translate(-187.000000, -2719.000000)">
            <g id="Group-11" transform="translate(187.000000, 2719.000000)">
                <polygon id="Fill-1" fill="#5AAAE7" points="19 19 19 161 55 144.759607 55 19"></polygon>
                <polygon id="Fill-2" fill="#FF6326" points="89 19 89 144.759607 125 161 125 19"></polygon>
                <polygon id="Fill-3" fill="#1E81CE" points="89 19 89 144.759607 125 161 125 19"></polygon>
                <polygon id="Fill-4" fill="#96C8EF" points="46 19 46 149 72.5001559 136.789707 99 149 99 19"></polygon>
                <polygon id="Fill-5" fill="#5AAAE7" points="72 19 72 136.789707 99 149 99 19"></polygon>
                <polygon id="Fill-6" fill="#595959" points="0 25 24 25 24 0 0 0"></polygon>
                <polygon id="Fill-7" fill="#595959" points="120 25 144 25 144 0 120 0"></polygon>
                <polygon id="Fill-8" fill="#454040" points="120 25 144 25 144 0 120 0"></polygon>
                <polygon id="Fill-9" fill="#1E81CE" points="19 25 126 25 126 0 19 0"></polygon>
                <polygon id="Fill-10" fill="#1A6FB0" points="72 25 125 25 125 0 72 0"></polygon>
            </g>
        </g>
    </g>
</svg>