<?xml version="1.0" encoding="UTF-8"?>
<svg width="183px" height="173px" viewBox="0 0 183 173" version="1.1" xmlns="http://www.w3.org/2000/svg" xmlns:xlink="http://www.w3.org/1999/xlink">
    <!-- Generator: Sketch 59.1 (86144) - https://sketch.com -->
    <title>Group 20</title>
    <desc>Created with Sketch.</desc>
    <defs>
        <polygon id="path-1" points="0.436516 0.146684507 73.613092 0.146684507 73.613092 100.024263 0.436516 100.024263"></polygon>
        <polygon id="path-3" points="0 173 182.548112 173 182.548112 0.146684507 0 0.146684507"></polygon>
    </defs>
    <g id="Page-1" stroke="none" stroke-width="1" fill="none" fill-rule="evenodd">
        <g id="Careers" transform="translate(-502.000000, -2400.000000)">
            <g id="Group-20" transform="translate(502.000000, 2400.000000)">
                <polygon id="Fill-1" fill="#C8CACC" points="75.4697724 138.236802 75.4648981 138.236802 70.7728626 156.808551 55 170.14413 55 173 91.5 173 128 173 128 170.14413 112.227137 156.808551 107.535102 138.236802 91.5019497 138"></polygon>
                <polygon id="Fill-2" fill="#F2F0F0" points="55.0019497 170 55 170 55 173 91.5 173 128 173 128 170"></polygon>
                <g id="Group-19">
                    <path d="M9.7403824,11.2236552 L172.807046,11.2236552 C178.165286,11.2236552 182.548014,15.6007989 182.548014,20.9516158 L182.548014,121.261402 L0.0018544,121.261402 L0.0018544,20.9511285 C0.0018544,15.6003115 4.3845824,11.2236552 9.7428224,11.2236552 L9.7403824,11.2236552 L9.7403824,11.2236552 Z" id="Fill-3" fill="#666666"></path>
                    <path d="M6.6134248,114.656505 L175.931857,114.656505 L175.931857,20.9509335 C175.931857,19.247249 174.513241,17.8305983 172.804753,17.8305983 L9.7380888,17.8305983 C8.0320408,17.8305983 6.6134248,19.247249 6.6134248,20.9509335 L6.6134248,114.656505 Z" id="Fill-5" fill="#5AAAE7"></path>
                    <path d="M182.54577,121.261109 L182.54577,131.898904 C182.54577,137.250208 177.715058,141.626377 171.809282,141.626377 L10.7385376,141.626377 C4.8308096,141.626377 9.76e-05,137.250208 9.76e-05,131.898904 L9.76e-05,121.261109 L182.54577,121.261109 Z" id="Fill-7" fill="#F2F0F0"></path>
                    <polygon id="Fill-9" fill="#DFE1E3" points="171.078209 4.88157268 91.2716648 4.88157268 91.2716648 106.452553 171.078697 106.452553 171.078697 4.88157268"></polygon>
                    <g id="Group-13" transform="translate(92.720000, 0.000000)">
                        <mask id="mask-2" fill="white">
                            <use xlink:href="#path-1"></use>
                        </mask>
                        <g id="Clip-12"></g>
                        <path d="M73.613092,4.88157268 C49.221876,4.88157268 25.924756,-5.77230338 0.436516,4.88157268 L0.436516,100.024263 L73.613092,100.024263 L73.613092,4.88157268 Z" id="Fill-11" fill="#F2F0F0" mask="url(#mask-2)"></path>
                    </g>
                    <mask id="mask-4" fill="white">
                        <use xlink:href="#path-3"></use>
                    </mask>
                    <g id="Clip-15"></g>
                    <polygon id="Fill-14" fill="#DFE1E3" mask="url(#mask-4)" points="11.467024 106.452504 91.271616 106.452504 91.271616 4.88152394 11.467024 4.88152394"></polygon>
                    <path d="M16.2137512,4.88157268 C41.2320472,4.88157268 77.3899192,-5.58712028 91.2735192,4.88157268 L91.2735192,100.024263 L16.2137512,100.024263 L16.2137512,4.88157268 Z" id="Fill-16" fill="#F2F0F0" mask="url(#mask-4)"></path>
                    <path d="M22.626608,52.738782 L22.626608,52.738782 L80.564896,52.738782 L80.564896,54.6953876 L22.626608,54.6953876 L22.626608,52.738782 Z M22.626608,56.6861059 L22.626608,56.6861059 L80.564896,56.6861059 L80.564896,58.6427115 L22.626608,58.6427115 L22.626608,56.6861059 Z M22.626608,60.6309932 L22.626608,60.6309932 L80.564896,60.6309932 L80.564896,62.5875989 L22.626608,62.5875989 L22.626608,60.6309932 Z M22.626608,64.5783172 L22.626608,64.5783172 L80.564896,64.5783172 L80.564896,66.5349228 L22.626608,66.5349228 L22.626608,64.5783172 Z M22.626608,68.5236918 L22.626608,68.5236918 L42.567752,68.5236918 L42.567752,70.4802975 L22.626608,70.4802975 L22.626608,68.5236918 Z M22.626608,26.9301059 L22.626608,26.9301059 L80.564896,26.9301059 L80.564896,28.8867115 L22.626608,28.8867115 L22.626608,26.9301059 Z M22.626608,30.8774299 L22.626608,30.8774299 L80.564896,30.8774299 L80.564896,32.8340355 L22.626608,32.8340355 L22.626608,30.8774299 Z M22.626608,34.8228045 L22.626608,34.8228045 L80.564896,34.8228045 L80.564896,36.7794101 L22.626608,36.7794101 L22.626608,34.8228045 Z M22.626608,38.7701285 L22.626608,38.7701285 L80.564896,38.7701285 L80.564896,40.7267341 L22.626608,40.7267341 L22.626608,38.7701285 Z M22.626608,42.7174524 L22.626608,42.7174524 L47.995776,42.7174524 L47.995776,44.674058 L22.626608,44.674058 L22.626608,42.7174524 Z M22.626608,22.9871679 L22.626608,22.9871679 L80.564896,22.9871679 L80.564896,24.9437735 L22.626608,24.9437735 L22.626608,22.9871679 Z M99.833576,52.7407313 L99.833576,52.7407313 L157.771864,52.7407313 L157.771864,54.6973369 L99.833576,54.6973369 L99.833576,52.7407313 Z M99.833576,56.6880552 L99.833576,56.6880552 L157.771864,56.6880552 L157.771864,58.6446608 L99.833576,58.6446608 L99.833576,56.6880552 Z M99.833576,60.6334299 L99.833576,60.6334299 L157.771864,60.6334299 L157.771864,62.5900355 L99.833576,62.5900355 L99.833576,60.6334299 Z M99.833576,64.5807538 L99.833576,64.5807538 L157.771864,64.5807538 L157.771864,66.5373594 L99.833576,66.5373594 L99.833576,64.5807538 Z M99.833576,68.5261285 L99.833576,68.5261285 L119.77472,68.5261285 L119.77472,70.4827341 L99.833576,70.4827341 L99.833576,68.5261285 Z M99.833576,26.9325425 L99.833576,26.9325425 L157.771864,26.9325425 L157.771864,28.8891482 L99.833576,28.8891482 L99.833576,26.9325425 Z M99.833576,30.8798665 L99.833576,30.8798665 L125.202744,30.8798665 L125.202744,32.8364721 L99.833576,32.8364721 L99.833576,30.8798665 Z M99.833576,34.8247538 L99.833576,34.8247538 L157.771864,34.8247538 L157.771864,36.7813594 L99.833576,36.7813594 L99.833576,34.8247538 Z M99.833576,38.7725651 L99.833576,38.7725651 L157.771864,38.7725651 L157.771864,40.7291707 L99.833576,40.7291707 L99.833576,38.7725651 Z M99.833576,42.719889 L99.833576,42.719889 L125.202744,42.719889 L125.202744,44.6764946 L99.833576,44.6764946 L99.833576,42.719889 Z M99.833576,22.9896045 L99.833576,22.9896045 L157.771864,22.9896045 L157.771864,24.9462101 L99.833576,24.9462101 L99.833576,22.9896045 Z M99.833576,48.7977932 L99.833576,48.7977932 L157.771864,48.7977932 L157.771864,50.7543989 L99.833576,50.7543989 L99.833576,48.7977932 Z M22.626608,50.7543989 L80.564896,50.7543989 L80.564896,48.7977932 L22.626608,48.7977932 L22.626608,50.7543989 Z" id="Fill-18" fill="#C8CACC" mask="url(#mask-4)"></path>
                </g>
            </g>
        </g>
    </g>
</svg>