<?xml version="1.0" encoding="UTF-8"?>
<svg width="168px" height="165px" viewBox="0 0 168 165" version="1.1" xmlns="http://www.w3.org/2000/svg" xmlns:xlink="http://www.w3.org/1999/xlink">
    <!-- Generator: sketchtool 59.1 (101010) - https://sketch.com -->
    <title>E1D4D1BA-F8EC-486B-9CFE-15C9A6933ED7</title>
    <desc>Created with sketchtool.</desc>
    <defs>
        <polygon id="path-1" points="0.0330759259 0.0302898551 52.8845451 0.0302898551 52.8845451 21.9093217 0.0330759259 21.9093217"></polygon>
    </defs>
    <g id="Page-1" stroke="none" stroke-width="1" fill="none" fill-rule="evenodd">
        <g id="Careers" transform="translate(-516.000000, -2337.000000)">
            <g id="Group-40" transform="translate(516.000000, 2337.579258)">
                <path d="M53.5804554,27.0856504 C52.6190023,27.0856504 51.6993373,26.5306769 51.278518,25.593359 C50.7045843,24.3176747 51.2683974,22.8165221 52.5373849,22.2395596 L52.595823,22.2139606 C53.8713399,21.6511104 55.3580826,22.2372623 55.9179781,23.520495 C56.4752617,24.8037278 55.8938193,26.2986448 54.617323,26.8601822 C54.2807328,27.0124635 53.9271662,27.0856504 53.5804554,27.0856504 L53.5804554,27.0856504 Z M112.62804,29.2792893 C112.230074,29.2792893 111.825905,29.1844416 111.449812,28.9829314 L111.389741,28.949784 C110.169398,28.2753484 109.724419,26.7331717 110.394988,25.506388 C111.065883,24.2792762 112.599964,23.8319498 113.820634,24.5063854 L113.828143,24.5099955 C115.045875,25.1781955 115.506523,26.7151211 114.848361,27.9432175 C114.391956,28.7945489 113.524526,29.2792893 112.62804,29.2792893 L112.62804,29.2792893 Z M44.642043,31.9983644 C43.809219,31.9983644 42.9943507,31.5841854 42.5137874,30.8263889 C41.7651925,29.6471931 42.1079857,28.0830275 43.2773999,27.3278565 C44.4278789,26.5638243 45.9799156,26.8703562 46.755281,28.0203428 C47.5381552,29.1791906 47.2371502,30.7561557 46.0843859,31.5418486 L45.9965656,31.6009232 C45.5767256,31.8700411 45.1075887,31.9983644 44.642043,31.9983644 L44.642043,31.9983644 Z M121.418562,31.963576 L121.166201,32.2891429 L121.418562,31.963576 Z M121.191666,34.8457627 C120.673885,34.8457627 120.153492,34.6865893 119.703291,34.3557713 L119.617756,34.290461 C118.518532,33.4302683 118.319712,31.8378782 119.175389,30.7315412 C120.02976,29.6278297 121.609873,29.4279605 122.709097,30.282902 C123.810932,31.1148701 124.045663,32.6865841 123.229489,33.8070334 C122.734561,34.4867201 121.968337,34.8457627 121.191666,34.8457627 L121.191666,34.8457627 Z M36.5517988,38.2238484 C35.8528273,38.2238484 35.1590793,37.9353671 34.6605601,37.3685787 C33.737304,36.3200035 33.8355714,34.7174394 34.8786419,33.789311 L34.8887624,33.7801216 C35.92563,32.848383 37.5210872,32.9327285 38.4505462,33.9750679 C39.3790259,35.0160946 39.2974085,36.6147204 38.2631527,37.5507255 L38.222344,37.5878113 C37.7414542,38.0147897 37.1446677,38.2238484 36.5517988,38.2238484 L36.5517988,38.2238484 Z M128.808855,41.6531321 C128.145469,41.6531321 127.483715,41.3928754 126.988787,40.8736748 C126.013296,39.8736722 126.027334,38.2648724 127.023393,37.283905 C128.01684,36.3045785 129.612297,36.3186908 130.586483,37.3186934 L130.628597,37.3610302 C131.593968,38.3712068 131.560668,39.977381 130.555794,40.9465336 C130.06609,41.4197872 129.437309,41.6531321 128.808855,41.6531321 L128.808855,41.6531321 Z M29.4918927,45.6131031 C28.9231826,45.6131031 28.3531666,45.4207823 27.8810915,45.0285922 C26.8099446,44.1336112 26.6620539,42.5349854 27.5520101,41.4568729 L27.5738836,41.4312739 C28.4638398,40.3531615 30.0530941,40.205803 31.1255468,41.0991431 C32.1979996,41.9941241 32.3458904,43.5927499 31.4556077,44.6708623 L31.4340607,44.6964614 C30.9355415,45.3016484 30.2163289,45.6131031 29.4918927,45.6131031 L29.4918927,45.6131031 Z M135.30756,49.5425522 C134.500201,49.5425522 133.7059,49.1526595 133.218481,48.4309641 C132.408836,47.2911515 132.677847,45.7181247 133.812982,44.9042072 C134.945505,44.0902898 136.52921,44.3656433 137.339181,45.5054559 L137.392722,45.582253 C138.17429,46.741429 137.874591,48.3180659 136.721827,49.1053997 C136.288275,49.4014294 135.795959,49.5425522 135.30756,49.5425522 L135.30756,49.5425522 Z M23.6307832,53.9961248 C23.1831933,53.9961248 22.7290741,53.8769909 22.3196811,53.6242826 C21.132311,52.8973362 20.756218,51.34236 21.4741248,50.1487238 C22.1691786,48.9554158 23.6931389,48.539924 24.8945472,49.2245336 C26.1060761,49.9157071 26.5317925,51.4628067 25.8458798,52.6807291 C25.8266181,52.7142048 25.8063769,52.7473522 25.7858093,52.7808278 C25.311449,53.5642234 24.4812367,53.9961248 23.6307832,53.9961248 L23.6307832,53.9961248 Z M140.545113,58.3394246 C139.626754,58.3394246 138.739409,57.8333518 138.290513,56.9587187 L138.25199,56.8845472 C137.637574,55.6269134 138.152743,54.1077102 139.403775,53.4897237 C140.653501,52.8717372 142.164729,53.389625 142.780777,54.6462742 L142.781756,54.651197 C143.421963,55.8947185 142.930953,57.4152345 141.69298,58.0575073 C141.325702,58.2485153 140.932632,58.3394246 140.545113,58.3394246 L140.545113,58.3394246 Z M19.1137492,63.1828899 C18.7974002,63.1828899 18.476154,63.1228307 18.1650285,62.9958202 C16.8741675,62.4690712 16.2532222,60.9895793 16.7775325,59.6922342 L16.7902648,59.6613841 C17.3142486,58.3640391 18.7846678,57.7381759 20.0765082,58.2652531 C21.3670427,58.7920021 21.987988,60.271494 21.4640042,61.5688391 L21.4512719,61.601002 C21.0533054,62.5855795 20.1098081,63.1828899 19.1137492,63.1828899 L19.1137492,63.1828899 Z M144.37101,67.8379727 C143.309984,67.8379727 142.318822,67.1559886 141.965582,66.0906757 L141.937832,66.0020637 C141.527133,64.6636946 142.274422,63.2445901 143.607071,62.8330367 C144.939721,62.4201705 146.348764,63.1714032 146.759462,64.5110851 L146.760768,64.5150234 C147.200849,65.8445313 146.482616,67.2662613 145.160414,67.7083367 C144.900218,67.7969486 144.633492,67.8379727 144.37101,67.8379727 L144.37101,67.8379727 Z M16.0557081,72.9607298 C15.8617851,72.9607298 15.6639445,72.9377564 15.4677363,72.8901685 C14.1145196,72.5659142 13.2781044,71.2006333 13.5980446,69.8402753 C13.8964379,68.4877939 15.2241899,67.6239912 16.5770801,67.9085341 C17.9404173,68.1957026 18.815356,69.5389946 18.529695,70.9095266 L18.5065157,71.0135636 C18.2313018,72.1776625 17.197046,72.9607298 16.0557081,72.9607298 L16.0557081,72.9607298 Z M147.108785,75.1632299 L146.683068,75.2262428 L147.108785,75.1632299 Z M146.685354,77.7966467 C145.484272,77.7966467 144.420634,76.931203 144.205164,75.700481 L144.187208,75.5954594 C143.985776,74.2095024 144.938415,72.9210185 146.317096,72.717211 C147.687942,72.5134034 148.971947,73.4684437 149.177296,74.8504624 C149.400602,76.2170561 148.488772,77.5144011 147.126741,77.7569354 C146.97885,77.7838472 146.830959,77.7966467 146.685354,77.7966467 L146.685354,77.7966467 Z M14.5252184,83.0861256 C14.4524157,83.0861256 14.3786335,83.0821873 14.3045249,83.0759517 C12.9183348,82.9551768 11.8919142,81.7297059 12.0091169,80.3375132 C12.1060783,78.952869 13.2843073,77.89773 14.6731091,77.9850292 C16.0645228,78.0670773 17.1255491,79.2669492 17.0439317,80.664393 L17.035117,80.7694146 C16.9215056,82.0900613 15.8196705,83.0861256 14.5252184,83.0861256 L14.5252184,83.0861256 Z M147.477369,88.1603103 C146.08367,88.1603103 144.955065,87.0257487 144.955065,85.6243666 L144.955065,85.5912192 L144.955065,85.5383802 L144.955065,85.4717571 L144.955065,85.4386097 C144.955065,84.0372276 146.08367,82.9013532 147.477369,82.9013532 C148.870089,82.9013532 150,84.0372276 150,85.4386097 L150,85.4717571 C150,85.4898077 150,85.5078583 149.998694,85.5242679 C150,85.5462568 150,85.5679175 150,85.5912192 L150,85.6243666 C150,87.0257487 148.871394,88.1603103 147.477369,88.1603103 L147.477369,88.1603103 Z M14.5317478,93.3240915 C13.2372957,93.3240915 12.1367665,92.3319655 12.0218492,91.0126315 L12.0143404,90.9076099 C11.932723,89.5088534 12.9937493,88.3102943 14.3848364,88.2269334 C15.7635178,88.1422597 16.9534996,89.1973987 17.0491552,90.5820429 C17.1598284,91.9716101 16.1347137,93.1957682 14.7508089,93.3152303 C14.6770268,93.3214659 14.6042241,93.3240915 14.5317478,93.3240915 L14.5317478,93.3240915 Z M146.704615,98.3739899 C146.559336,98.3739899 146.412752,98.3611903 146.263555,98.3342786 C144.901524,98.0930571 143.988388,96.7930865 144.212673,95.42518 C144.424551,94.0470996 145.703659,93.0959977 147.075811,93.2984925 C148.453187,93.5036128 149.405825,94.7868456 149.202761,96.1728026 L149.186438,96.2778242 C148.970641,97.5072334 147.906024,98.3739899 146.704615,98.3739899 L146.704615,98.3739899 Z M16.0886815,103.451785 C14.9473436,103.451785 13.9130878,102.668717 13.6362416,101.504618 L13.6287328,101.471143 C13.3061807,100.108487 14.1412901,98.7405809 15.4971185,98.4150139 C16.8526205,98.0894469 18.213346,98.9302762 18.535898,100.292932 L18.5437332,100.326407 C18.8675911,101.68775 18.0308494,103.055656 16.6766533,103.381551 C16.4788127,103.428811 16.2826045,103.451785 16.0886815,103.451785 L16.0886815,103.451785 Z M144.385049,108.347761 C144.120935,108.347761 143.851924,108.305752 143.586504,108.21714 C142.274422,107.777362 141.560107,106.356945 141.982232,105.035314 C142.394237,103.70318 143.799689,102.950635 145.127114,103.355952 C146.459763,103.763568 147.212276,105.174795 146.809086,106.513493 L146.777418,106.613263 C146.425484,107.676279 145.440851,108.347761 144.385049,108.347761 L144.385049,108.347761 Z M19.1734932,113.214528 C18.1777608,113.214528 17.233937,112.616889 16.8346647,111.632311 L16.8284617,111.614589 C16.2966427,110.319541 16.9100791,108.836439 18.196696,108.303127 C19.4846188,107.768501 20.9602615,108.385175 21.4907747,109.678581 L21.5087305,109.723544 C22.0340202,111.020889 21.4117691,112.500381 20.1212346,113.02713 C19.8110884,113.15414 19.4885364,113.214528 19.1734932,113.214528 L19.1734932,113.214528 Z M135.616074,124.267724 L135.632724,124.27921 L135.366325,124.088202 L135.616074,124.267724 Z M112.70574,146.93631 C111.803052,146.93631 110.932031,146.448944 110.477911,145.594002 C109.821381,144.358029 110.2866,142.821104 111.516085,142.162093 C112.736428,141.487657 114.270509,141.934984 114.94271,143.162096 C115.613605,144.388879 115.169607,145.931056 113.947957,146.605492 L113.890499,146.637326 C113.511794,146.840149 113.106318,146.93631 112.70574,146.93631 L112.70574,146.93631 Z M53.7041874,149.227093 C53.3597619,149.227093 53.0104394,149.155219 52.6751551,149.00261 L52.6405493,148.987513 C51.3715618,148.409238 50.8093811,146.906772 51.3842941,145.631088 C51.9595336,144.355404 53.4528058,143.790256 54.7230992,144.368203 C55.9933925,144.945166 56.5709173,146.452882 55.9982896,147.729879 C55.5761643,148.669494 54.6630287,149.227093 53.7041874,149.227093 L53.7041874,149.227093 Z M103.414414,151.127 C102.382444,151.127 101.415767,150.488666 101.042286,149.457813 C100.566619,148.141104 101.242412,146.686227 102.550902,146.20805 L102.593017,146.193938 C103.902813,145.720685 105.347441,146.403981 105.819516,147.722003 C106.291265,149.040024 105.608943,150.492604 104.298168,150.966842 L104.276294,150.97439 C103.990633,151.078428 103.700075,151.127 103.414414,151.127 L103.414414,151.127 Z M63.312189,152.685915 C63.0928014,152.685915 62.8694962,152.656377 62.6465174,152.596318 L62.6324792,152.59238 C61.2867714,152.232024 60.483656,150.84377 60.8404873,149.491288 C61.1976451,148.137494 62.5776323,147.331125 63.9230137,147.688855 L63.9752489,147.702967 C65.3193244,148.072184 66.1113397,149.465689 65.7440614,150.816858 C65.4378329,151.944856 64.4215329,152.685915 63.312189,152.685915 L63.312189,152.685915 Z M93.5844132,153.835901 C92.4035725,153.835901 91.3490756,152.998682 91.113038,151.789949 C90.8427211,150.415479 91.7326774,149.082361 93.0999323,148.811602 L93.1469439,148.802741 C94.5155046,148.539858 95.8367273,149.442388 96.097903,150.818171 C96.3594052,152.192313 95.4629195,153.521821 94.0946853,153.784703 L94.0754236,153.788313 C93.909577,153.820476 93.7463422,153.835901 93.5844132,153.835901 L93.5844132,153.835901 Z M73.3204424,154.617984 C73.2208692,154.617984 73.1226018,154.612733 73.0220492,154.601246 L73.0155198,154.599933 C71.6293297,154.460123 70.625762,153.219227 70.764838,151.824409 C70.9039141,150.430904 72.1484164,149.416789 73.5333006,149.555286 L73.6110004,149.562834 C74.9949052,149.726931 75.9844347,150.98719 75.8211999,152.378398 C75.6706974,153.669179 74.5815947,154.617984 73.3204424,154.617984 L73.3204424,154.617984 Z M83.4638543,155 C82.1031288,155 80.9823585,153.911385 80.9428557,152.535931 C80.9030264,151.135861 81.9999644,149.969465 83.3923574,149.929754 C84.7876887,149.865428 85.9597147,150.951417 86.0207645,152.351486 C86.0834467,153.749915 85.0018527,154.93469 83.6091332,154.996062 L83.536657,154.998687 C83.5124982,155 83.488013,155 83.4638543,155 L83.4638543,155 Z" id="Fill-1" fill="#A7C7D3"></path>
                <path d="M100.803528,133.624847 L62.9548347,95.773611 C60.5820523,93.4019707 60.5794495,89.5635511 62.9483277,87.1958153 C63.8837109,86.2603693 65.0530212,85.6935704 66.2682059,85.5016006 C68.1223794,85.2029087 70.0910763,85.7684061 71.5258727,87.2032989 L61.7793428,77.4561144 C60.594741,76.2714331 60,74.7184301 60,73.1690062 C60,72.8462366 60.0253774,72.5221656 60.0774335,72.1993961 C60.2719932,70.9818521 60.8361512,69.8150663 61.7728358,68.8783188 C62.6994345,67.9516578 63.8482477,67.3900649 65.0481409,67.1902862 C66.6810759,66.9182747 68.4018556,67.3162053 69.7732087,68.385054 L66.0648618,64.6764581 C64.8789586,63.4904753 64.2842176,61.9335678 64.2842176,60.3828424 C64.2816148,60.0538908 64.3108963,59.7220108 64.3655552,59.3979398 C64.5601149,58.1878794 65.1229716,57.027601 66.0544505,56.0960595 C66.9911351,55.159312 68.159144,54.5925131 69.3805104,54.4005433 C71.2333824,54.1018513 73.2033807,54.6686502 74.6368758,56.1022415 L78.8843287,60.3499797 C77.4531111,58.918666 76.8837475,56.9462579 77.1824194,55.0932614 C77.3743763,53.8766935 77.9388597,52.7099077 78.8778217,51.7721841 C81.243121,49.4067259 85.0848617,49.4093289 87.4553666,51.7796677 L112.052202,76.3784807 L112.120851,76.2805435 C113.367595,75.033716 114.836879,74.1477267 116.403767,73.6189963 C120.271211,72.3149033 124.723309,73.2060986 127.808935,76.2932331 L139.277546,87.7626143 C141.482448,89.9663623 142.719105,92.953282 142.724311,96.067097 L142.730493,103.243188 C142.733095,106.596152 144.067684,109.812784 146.442744,112.188329 L149,114.745757 L119.747722,144 L116.478923,140.730982 C114.305581,138.557494 111.41419,137.24852 108.350037,137.047765 C105.503219,136.860676 102.82298,135.644434 100.803528,133.624847" id="Fill-3" fill="#FECBAA"></path>
                <path d="M116.841825,147.600304 L150.944212,114.81039 C152.067982,113.72987 153.888803,113.72987 155.012573,114.81039 L167.157173,126.48759 C168.280942,127.56811 168.280942,129.32014 167.157173,130.399696 L133.056122,163.18961 C131.932352,164.27013 130.110195,164.27013 128.987762,163.18961 L116.841825,151.51241 C115.719392,150.43189 115.719392,148.679539 116.841825,147.600304" id="Fill-5" fill="#00AE9A"></path>
                <path d="M151.733371,128.265742 C152.711413,129.243618 154.293769,129.244589 155.26922,128.269628 C156.244672,127.294342 156.243376,125.710636 155.266629,124.73438 C154.288911,123.756504 152.706231,123.755209 151.73078,124.730494 C150.755328,125.707075 150.756624,127.289161 151.733371,128.265742" id="Fill-7" fill="#2D6D75"></path>
                <path d="M120.628712,86.2609854 L112,77.7676022 L112.069942,77.669377 C113.340167,76.4188815 114.836792,75.5302858 116.433523,75 L124.250445,82.695507 C125.249852,83.6797174 125.249852,85.276775 124.250445,86.2609854 C123.248054,87.24748 121.628451,87.2451957 120.628712,86.2609854" id="Fill-9" fill="#FFAE85"></path>
                <path d="M67.1964716,133.62499 L105.045165,95.7742787 C107.417948,93.4013698 107.42055,89.5643048 105.052648,87.1966018 C104.116289,86.2598673 102.94828,85.6930762 101.731794,85.5011091 C99.8776206,85.2024213 97.9089237,85.7692123 96.4741273,87.2027838 L106.220657,77.4570358 C107.405259,76.2723708 108,74.7193893 108,73.1686854 C108,72.8472218 107.974623,72.5218538 107.922567,72.2003902 C107.728007,70.9815616 107.163849,69.8160934 106.227164,68.8793589 C105.300566,67.9527108 104.151752,67.3911256 102.951859,67.1913496 C101.318924,66.919342 99.5981444,67.317267 98.2267913,68.386101 L101.935138,64.6762549 C103.121041,63.49159 103.715782,61.934704 103.715782,60.3840001 C103.718385,60.0537516 103.689104,59.7218762 103.634445,59.3978096 C103.441186,58.1890675 102.877028,57.0275037 101.945549,56.0959751 C101.008865,55.160542 99.840856,54.593751 98.6194896,54.4017838 C96.7666176,54.103096 94.7966193,54.6685856 93.3631242,56.1034585 L89.1156713,60.3511379 C90.5468889,58.9188679 91.1162525,56.9474632 90.8175806,55.0931909 C90.6256237,53.8779413 90.0611403,52.7111716 89.1221783,51.7721596 C86.756879,49.4067341 82.9151383,49.4093371 80.5446334,51.779643 L55.9477977,76.3781154 L55.8791487,76.2814811 C54.6324049,75.0346709 53.1631213,74.1486938 51.5962325,73.6199708 C47.7274877,72.3158958 43.2766906,73.2070788 40.1910649,76.292869 L28.7224539,87.7633929 C26.5175525,89.9671104 25.2808946,92.9539888 25.275689,96.0677606 L25.2682059,103.242451 C25.2669045,106.59667 23.9323161,109.813258 21.5572562,112.18877 L19,114.746162 L48.2522784,144 L51.5210765,140.731028 C53.694419,138.557569 56.5858103,137.248614 59.6499629,137.047862 C62.4967812,136.860775 65.17702,135.644549 67.1964716,133.62499" id="Fill-11" fill="#FECBAA"></path>
                <path d="M51.1571889,147.599073 L17.0554593,114.810391 C15.9317112,113.72987 14.1109251,113.72987 12.987177,114.810391 L0.842811105,126.48761 C-0.280937035,127.568132 -0.280937035,129.318879 0.842811105,130.399722 L34.9432041,163.189368 C36.0669522,164.270211 37.8890749,164.270211 39.012823,163.189368 L51.1571889,151.51247 C52.280937,150.431627 52.280937,148.679595 51.1571889,147.599073" id="Fill-13" fill="#1C164D"></path>
                <path d="M47.3726135,86.2609854 L56,77.7662969 L55.9300581,77.669377 C54.6598331,76.4188815 53.1632085,75.5302858 51.5664773,75 L43.7495554,82.6942017 C42.7501482,83.6784121 42.7501482,85.276775 43.7495554,86.2609854 C44.7519458,87.24748 46.371549,87.2451957 47.3726135,86.2609854" id="Fill-15" fill="#FFAE85"></path>
                <path d="M109,43.9131319 L109,97.9100318 C109,101.29452 106.227046,104.033094 102.801456,104.033094 C101.446928,104.033094 100.192243,103.603469 99.1731855,102.872876 C97.6169765,101.763859 96.60158,99.9547722 96.60158,97.9100318 L96.60158,111.813938 C96.60158,113.503557 95.9086743,115.035635 94.7881106,116.140714 C94.555478,116.371773 94.3005472,116.584452 94.0303073,116.776782 C93.0082547,117.507375 91.7575632,117.937 90.4030356,117.937 C89.0628188,117.937 87.8237756,117.517878 86.8123728,116.805008 C85.4342159,115.834495 84.4773936,114.322766 84.2590717,112.580634 L84.2590717,117.872999 C84.2590717,119.563931 83.5621723,121.098635 82.4416086,122.203714 C82.2049823,122.441009 81.9437282,122.657626 81.6708259,122.849957 C80.6554294,123.574313 79.4074003,124 78.0591961,124 C76.7059998,124 75.4499834,123.570375 74.4282636,122.837156 C72.8720545,121.728139 71.8569909,119.919053 71.8569909,117.872999 L71.8569909,111.813938 C71.8569909,113.856053 70.8429257,115.667765 69.2853854,116.776782 C68.2673265,117.507375 67.0156365,117.937 65.6584465,117.937 C62.235186,117.937 59.4585709,115.194816 59.4585709,111.813938 L59.4585709,76.7225174 L59.3387601,76.7428663 C57.5356077,76.7428663 55.8312992,76.3263695 54.3156927,75.586587 C50.5752664,73.7571515 48,69.9466482 48,65.5440563 L48,49.1812102 C48,46.037627 49.2650023,43.0246709 51.5141171,40.7990875 L56.6985962,35.6770621 C59.1231007,33.282123 60.4842844,30.0374515 60.4842844,26.6486964 L60.4842844,23 L102.800124,23 L102.800124,27.6628614 C102.800124,30.763121 103.945316,33.7593385 106.016379,36.0886359 C107.94034,38.2528442 109,41.0324439 109,43.9131319" id="Fill-17" fill="#FEDFC5"></path>
                <path d="M105.011494,88.3144589 C104.06215,87.3747563 102.878354,86.807475 101.645756,86.613594 C99.7665227,86.3139598 97.7712177,86.8825467 96.3170291,88.321966 L106.195289,78.5440331 C107.395572,77.355941 108,75.7977124 108,74.2437271 C108,73.919613 107.972631,73.593214 107.919871,73.2707319 C107.723012,72.0480415 107.152218,70.8788805 106.202874,69.9391779 C105.264081,69.0095938 104.098092,68.4462292 102.88363,68.2461466 C101.228296,67.9732771 99.4842585,68.3721366 98.0933815,69.4443571 L101.853168,65.7227565 C103.05378,64.5346643 103.65656,62.972519 103.65656,61.4172281 C103.658868,61.0869124 103.630839,60.7539854 103.575442,60.4275865 C103.378252,59.2153409 102.806469,58.0497703 101.862071,57.1152901 C100.914046,56.1768932 99.7289315,55.6083062 98.4923765,55.4157308 C96.6144618,55.1160966 94.6168486,55.6846836 93.1636492,57.1227973 L88.8591191,61.3839354 C90.3093507,59.9471273 90.8864097,57.9694761 90.583701,56.1093286 C90.3891497,54.8905549 89.8173667,53.7200884 88.8667033,52.7777746 C86.4684463,50.4048544 82.5744524,50.4074656 80.1722384,52.7852818 L55.2426317,77.4616942 L55.1730549,77.3647537 C53.9094606,76.113993 52.4206485,75.2252087 50.8322525,74.6948104 C48.9516998,74.0677981 46.9359504,73.9516001 45,74.3380564 C46.5583889,76.6698504 48.7380231,78.6040905 51.3938133,79.9083807 C52.1308,80.2693779 52.8855932,80.5726025 53.6558844,80.8174017 L53.6558844,111.415996 C53.6558844,117.555234 58.6974013,122.549464 64.893036,122.549464 C65.638926,122.549464 66.372945,122.477983 67.0878386,122.337631 C67.8878072,123.955591 69.0805056,125.379996 70.5838266,126.454827 C71.5163539,127.127862 72.5339562,127.64292 73.6043181,128 L105.00391,96.919314 C107.408762,94.5388866 107.41107,90.6896639 105.011494,88.3144589" id="Fill-19" fill="#FFAE85"></path>
                <path d="M114,97.8829798 L114,76.2724168 C113.476225,76.6406014 112.977033,77.0603516 112.508323,77.5283828 L112.439164,77.6272441 L87.6594943,52.7966262 C85.2716966,50.4035906 81.4010716,50.4012915 79.0181905,52.7887436 C78.072249,53.7356447 77.5035696,54.9134412 77.3101859,56.1411611 C77.0096216,58.0116439 77.5832175,60.0029937 79.0247459,61.4474859 L74.7457207,57.1599912 C73.3015702,55.712543 71.3169284,55.1403953 69.4502836,55.441906 C68.2198385,55.6356873 67.0431475,56.207835 66.0995004,57.1534224 C65.1610975,58.0937546 64.592746,59.2653107 64.3967401,60.4867902 C64.3429859,60.8139194 64.3134867,61.1486028 64.3161089,61.4809871 C64.3161089,63.0463464 64.9152707,64.617946 66.109989,65.8147923 L69.8459009,69.5587138 C68.4630431,68.4797786 66.7307836,68.0780929 65.0857107,68.3526712 C63.8768983,68.5540067 62.7195457,69.1212278 61.7860594,70.0563049 C60.8424123,71.0018923 60.2740607,72.1796888 60.0780548,73.4087225 C60.0256118,73.7348664 59.9987347,74.0619956 60,74.387811 C59.9987347,75.9528418 60.5992076,77.5195148 61.7926148,78.7153757 L71.6115928,88.5545422 C70.1674423,87.107094 68.1828006,86.5349463 66.3161557,86.8364569 C65.0906272,87.0302383 63.9129529,87.602386 62.9706168,88.5466596 C60.5851136,90.9380529 60.5877357,94.811381 62.9768445,97.2067157 L88.5211991,122.802277 C89.2072198,122.933326 89.9089734,123 90.6195767,123 C92.9870527,123 95.2506259,122.264616 97.1556197,120.880557 C97.6410457,120.528795 98.100578,120.137619 98.5204501,119.716884 C100.629316,117.603682 101.790602,114.791225 101.790602,111.79681 L101.790602,109.038546 C102.133776,109.070733 102.481867,109.085841 102.830286,109.085841 C108.988739,109.085841 114,104.060664 114,97.8829798" id="Fill-21" fill="#FFAE85"></path>
                <path d="M109,43.9131319 L109,97.9100318 C109,101.29452 106.227046,104.033094 102.801456,104.033094 C102.709268,104.033094 102.609093,104.033094 102.510249,104.02653 C101.271206,103.968765 100.123352,103.553581 99.1808401,102.876486 C99.1768464,102.876486 99.1768464,102.872876 99.1731855,102.872876 C97.6169765,101.763859 96.60158,99.9547722 96.60158,97.9100318 L96.60158,111.813938 C96.60158,113.503557 95.9086743,115.035635 94.7881106,116.140714 C94.555478,116.371773 94.3005472,116.584452 94.0303073,116.776782 C93.0082547,117.507375 91.7575632,117.937 90.4030356,117.937 C89.0628188,117.937 87.8237756,117.517878 86.8123728,116.805008 C85.4342159,115.834495 84.4773936,114.322766 84.2590717,112.580634 L84.2590717,117.872999 C84.2590717,119.563931 83.5621723,121.098635 82.4416086,122.203714 C82.2049823,122.441009 81.9437282,122.657626 81.6708259,122.849957 C80.6554294,123.574313 79.4074003,124 78.0591961,124 C76.7059998,124 75.4499834,123.570375 74.4282636,122.837156 C72.8720545,121.728139 71.8569909,119.919053 71.8569909,117.872999 L71.8569909,111.813938 C71.8569909,113.856053 70.8429257,115.667765 69.2853854,116.776782 C68.2673265,117.507375 67.0156365,117.937 65.6584465,117.937 C62.235186,117.937 59.4585709,115.194816 59.4585709,111.813938 L59.4585709,76.7225174 L59.3387601,76.7428663 C57.5356077,76.7428663 55.8312992,76.3263695 54.3156927,75.586587 C50.5752664,73.7571515 48,69.9466482 48,65.5440563 L48,49.1812102 C48,46.037627 49.2650023,43.0246709 51.5141171,40.7990875 L56.6985962,35.6770621 C58.1975623,34.1965125 59.2908358,32.3900517 59.9042005,30.4221122 C60.289259,29.2051142 60.4842844,27.9231309 60.4842844,26.6486964 L60.4842844,23 L102.800124,23 L102.800124,27.6628614 C102.800124,28.707878 102.91461,29.8103311 103.20848,30.8169473 C103.702366,32.755348 104.663182,34.5644345 106.016379,36.0886359 C107.9237,38.2361056 109,41.0527929 109,43.9131319" id="Fill-23" fill="#FEDFC5"></path>
                <path d="M109,42.904591 L109,96.8794386 C109,100.262545 106.288937,103 102.939805,103 C102.849675,103 102.751735,103 102.655098,102.993439 C101.443709,102.935697 100.321475,102.520683 99.4,101.843865 L99.5031453,49.8338565 C99.5031453,49.519889 99.4331887,49.0225278 99.3020607,48.390984 C96.9889371,37.0300857 87.4790672,29.419081 75.9778742,29.419081 L61,29.419081 C61.3764642,28.2015958 61.5671367,26.9211203 61.5671367,25.6472063 L61.5671367,22 L102.938503,22 L102.938503,26.6609571 C102.938503,27.7055469 103.050434,28.8075498 103.337744,29.8137548 C103.820607,31.7513639 104.759978,33.5597116 106.082972,35.0832905 C107.947722,37.2298831 109,40.0454201 109,42.904591" id="Fill-25" fill="#FECBAA"></path>
                <g id="Group-29" transform="translate(54.000000, 0.000000)">
                    <mask id="mask-2" fill="white">
                        <use xlink:href="#path-1"></use>
                    </mask>
                    <g id="Clip-28"></g>
                    <path d="M50.0680204,21.9093217 L2.84960062,21.9093217 C1.29427963,21.9093217 0.0330759259,20.6801913 0.0330759259,19.1644232 L0.0330759259,2.77506087 C0.0330759259,1.25929275 1.29427963,0.0301623188 2.84960062,0.0301623188 L50.0680204,0.0301623188 C51.6233414,0.0301623188 52.8845451,1.25929275 52.8845451,2.77506087 L52.8845451,19.1644232 C52.8845451,20.6801913 51.6233414,21.9093217 50.0680204,21.9093217" id="Fill-27" fill="#5AAAE7" mask="url(#mask-2)"></path>
                </g>
                <path d="M68,11.5 C68,10.1184807 66.8810758,9 65.5,9 C64.1189242,9 63,10.1184807 63,11.5 C63,12.8802252 64.1189242,14 65.5,14 C66.8810758,14 68,12.8802252 68,11.5" id="Fill-30" fill="#1A6FB0"></path>
                <path d="M98,69.5023165 L98,102.28114 C96.4861228,101.186882 95.4995148,99.401873 95.4995148,97.3830506 L95.4995148,111.101911 C95.4995148,112.770338 94.8270039,114.282026 93.7365595,115.372721 C93.5104483,115.600381 93.2639581,115.810229 93,116 L93,69.5023165 C93,68.1208124 94.1208514,67 95.4995148,67 C96.8791486,67 98,68.1208124 98,69.5023165" id="Fill-32" fill="#FECBAA"></path>
                <path d="M87,69.5481677 L87,116.924894 C85.6588365,115.949751 84.7298906,114.431139 84.5163399,112.681685 L84.5163399,117.999299 C84.5163399,119.696978 83.8400958,121.240323 82.7493691,122.350674 C82.5193166,122.589101 82.2666149,122.805433 82,123 L82,69.5481677 C82,68.1413496 83.1198473,67 84.4998382,67 C85.8801527,67 87,68.1413496 87,69.5481677" id="Fill-34" fill="#FECBAA"></path>
                <path d="M75,69.5488131 L75,123 C73.4870252,121.88541 72.4998382,120.067232 72.4998382,118.012217 L72.4998382,111.921388 C72.4998382,113.974094 71.5142691,115.7959 70,116.910491 L70,69.5488131 C70,68.1416387 71.1211415,67 72.4998382,67 C73.8840355,67 75,68.1416387 75,69.5488131" id="Fill-36" fill="#FECBAA"></path>
                <path d="M59,64.4256245 L59,75.9817929 L58.8825471,76 C57.1294894,76 55.4725296,75.6025831 54,74.8953316 L54,64.4256245 C54,63.0864613 55.1198473,62 56.4998382,62 C57.8827412,62 59,63.0864613 59,64.4256245" id="Fill-38" fill="#FECBAA"></path>
            </g>
        </g>
    </g>
</svg>