<?xml version="1.0" encoding="UTF-8"?>
<svg width="158px" height="158px" viewBox="0 0 158 158" version="1.1" xmlns="http://www.w3.org/2000/svg" xmlns:xlink="http://www.w3.org/1999/xlink">
    <!-- Generator: Sketch 59.1 (86144) - https://sketch.com -->
    <title>Group 20</title>
    <desc>Created with Sketch.</desc>
    <defs>
        <polygon id="path-1" points="0 0.244371975 42.8866467 0.244371975 42.8866467 47.999786 0 47.999786"></polygon>
        <polygon id="path-3" points="0.114134286 0.244371975 43 0.244371975 43 47.999786 0.114134286 47.999786"></polygon>
        <polygon id="path-5" points="0.000184158416 0.0924742268 30.8782999 0.0924742268 30.8782999 59.9107113 0.000184158416 59.9107113"></polygon>
    </defs>
    <g id="Page-1" stroke="none" stroke-width="1" fill="none" fill-rule="evenodd">
        <g id="Careers" transform="translate(-847.000000, -2400.000000)">
            <g id="Group-20" transform="translate(847.000000, 2400.000000)">
                <g id="Group-3" transform="translate(0.000000, 110.000000)">
                    <mask id="mask-2" fill="white">
                        <use xlink:href="#path-1"></use>
                    </mask>
                    <g id="Clip-2"></g>
                    <path d="M35.7010879,9.11183694 L21.915595,0.244371975 L1.348695,20.4110981 C0.147459286,21.6068178 -0.293597857,23.362028 0.196909286,24.9836331 C0.687416429,26.6003465 2.03700214,27.8183847 3.70171643,28.1497987 L17.2860307,30.7922446 L19.9406664,44.3141809 C20.2736093,45.971251 21.4972664,47.3146395 23.1214379,47.8028943 C23.562495,47.9368051 24.0121521,47.999786 24.4578164,47.999786 C25.6636593,47.999786 26.8378664,47.5295694 27.7150664,46.6563975 L37.4871236,36.928907 C41.2259736,33.2075312 43.1830879,27.7514293 42.850145,22.4937478 C42.5172021,17.2400408 39.9123236,12.3629962 35.7010879,9.11183694" id="Fill-1" fill="#96C8EF" mask="url(#mask-2)"></path>
                </g>
                <path d="M109.783617,22.7231779 C109.321405,21.235456 108.119652,20.02643 106.547821,19.654422 L91.3875586,15.5623341 L82.8819236,2.04573393 C81.9578067,0.651013978 80.4784184,0 78.9999546,0 C77.5211826,0 76.0417944,0.651013978 75.1173693,2.04573393 L66.6123506,15.5623341 L51.4523959,19.654422 C49.8805652,20.02612 48.6788126,21.235146 48.2166001,22.7231779 C47.7543875,24.2115199 48.0320232,25.8855558 49.0485826,27.0945818 L58.9399308,39.3708454 L58.1079482,55.0881828 C58.0155057,56.6689068 58.7547376,58.1569387 59.9567983,59.0872687 C61.2509934,60.0169787 62.9146504,60.2962947 64.3937305,59.6452807 L78.9999546,54.0648509 L93.6061787,59.6452807 C95.0849507,60.2032927 96.7486076,60.0169787 98.0428027,59.0872687 C99.2448634,58.1569387 99.9844035,56.6692168 99.8916528,55.0881828 L99.0593621,39.3708454 L108.951018,27.0945818 C109.967886,25.8855558 110.245522,24.2115199 109.783617,22.7231779" id="Fill-4" fill="#B8DDD7"></path>
                <path d="M132.02955,78.3388592 L124.747713,69.6862127 L113.358276,68.9645212 C111.721322,68.8613787 110.256695,67.9110598 109.510565,66.4673707 C108.760087,65.0236817 108.841748,63.2978045 109.723878,61.9257337 L115.827679,52.4256047 L113.003375,41.5310625 C112.593826,39.9618885 113.057712,38.2984477 114.222086,37.1507195 C115.382113,35.9984004 117.083029,35.5457364 118.666267,35.9491246 L129.718812,38.7333602 L139.35672,32.7168159 C140.74838,31.8381152 142.485936,31.7664969 143.964224,32.506246 C145.428541,33.2414042 146.392953,34.6850933 146.497591,36.2992582 L147.229439,47.5255704 L156.318384,54.7033096 C157.582738,55.7390195 158.201253,57.3528784 157.941676,58.9535767 C157.687377,60.5539689 156.591002,61.9036973 155.063034,62.5044948 L144.154871,66.6559042 L139.942944,77.1020673 C139.333433,78.6084988 137.96444,79.6888936 136.340838,79.9395575 C134.803243,80.1969546 133.113815,79.6264572 132.02955,78.3388592" id="Fill-6" fill="#00AE9A"></path>
                <path d="M21.6592815,79.9394606 C20.0356843,79.688765 18.6663854,78.6076209 18.0568766,77.1016105 L13.8452735,66.6541227 L2.93714683,62.5015746 C1.40887267,61.9007009 0.312812577,60.5514136 0.0582037166,58.9505123 C-0.201062623,57.349611 0.417450608,55.7352414 1.68180095,54.6994001 L10.7704058,47.5207506 L11.5025615,36.2933209 C11.6071995,34.6792573 12.5712977,33.2350791 14.0359196,32.4998276 C15.509546,31.7685555 17.2561007,31.840489 18.6434085,32.7104242 L28.2812853,38.7274254 L39.3337939,35.9431428 C40.9210628,35.5393974 42.6176272,35.9921188 43.77765,37.144584 C44.9420198,38.2924578 45.4059047,39.9561095 44.9966675,41.5254825 L42.1720617,52.4217125 L48.2758433,61.9230462 C49.1582804,63.2949849 49.2399415,65.0213871 48.4894664,66.4649531 C47.7436487,67.9088253 46.2790268,68.8592647 44.6414571,68.9627264 L33.2523681,69.6845094 L25.9705547,78.3382532 C24.8881565,79.624484 23.1996651,80.1975026 21.6592815,79.9394606" id="Fill-8" fill="#B8DDD7"></path>
                <g id="Group-12" transform="translate(115.000000, 110.000000)">
                    <mask id="mask-4" fill="white">
                        <use xlink:href="#path-3"></use>
                    </mask>
                    <g id="Clip-11"></g>
                    <path d="M41.65152,20.4110981 L21.08462,0.244371975 L5.51309143,10.6839134 C2.03070571,14.1457223 0.114134286,18.754028 0.114134286,23.6533911 C0.114134286,28.5533656 2.03070571,33.4674038 5.51309143,36.928907 L15.2848414,46.6563975 C16.1623486,47.5292637 17.3368629,47.999786 18.5423986,47.999786 C18.9877557,47.999786 19.43772,47.9374166 19.87847,47.8028943 C21.5026414,47.3146395 22.7266057,45.971251 23.0595486,44.3141809 L25.7138771,30.7922446 L39.2984986,28.1497987 C40.9632129,27.8183847 42.3124914,26.6003465 42.8033057,24.9836331 C43.2938129,23.362028 42.8524486,21.6068178 41.65152,20.4110981" id="Fill-10" fill="#1E81CE" mask="url(#mask-4)"></path>
                </g>
                <g id="Group-15" transform="translate(79.000000, 0.000000)">
                    <mask id="mask-6" fill="white">
                        <use xlink:href="#path-5"></use>
                    </mask>
                    <g id="Clip-14"></g>
                    <path d="M14.5490059,59.597567 L0.000184158416,54.0302474 L0.000184158416,0.0924123711 C1.47283762,0.0924123711 2.94641188,0.741896907 3.86689703,2.13334021 L12.338798,15.6181856 L27.4394812,19.7006598 C29.0051347,20.0714845 30.2021644,21.2776701 30.6625604,22.7622062 C31.1229564,24.2470515 30.8464119,25.9171546 29.8335406,27.1233402 L19.9807584,39.3707629 L20.8097782,55.0511753 C20.9018574,56.6281856 20.1655307,58.1127216 18.9681941,59.040866 C17.6787782,59.968701 16.0219663,60.154268 14.5490059,59.597567" id="Fill-13" fill="#00AE9A" mask="url(#mask-6)"></path>
                </g>
                <path d="M141.307617,93.8326659 L139.357302,92.9109266 C117.907245,83.045027 97.1071906,79.9097609 79,80.0019655 C42.9713336,80.2788869 17.3426946,93.6485639 16.6923833,93.8326659 C14.5569729,94.75502 13.4426843,97.244546 14.2787103,99.4574581 C21.9855639,124.998151 22.5427083,126.657836 22.5427083,126.565324 C22.5427083,126.565324 22.5427083,126.750348 22.6355657,126.842245 C23.4715917,129.147362 25.8858838,130.530739 28.3927237,129.792794 C49.8427803,123.245955 65.4428214,120.387611 79,120.203509 C96.6432132,119.926895 110.850394,124.076105 129.607276,129.792794 C132.021568,130.530739 134.528718,129.239566 135.364434,126.842245 C136.014436,124.998151 132.950142,135.232562 143.72129,99.4574581 C144.557316,97.244546 143.443027,94.7553273 141.307617,93.8326659" id="Fill-16" fill="#C2DFF6"></path>
                <path d="M143.721253,99.4574124 C132.950112,135.232433 136.014713,124.998353 135.364402,126.842443 C134.528686,129.239451 132.021538,130.530928 129.607248,129.792678 C110.850066,124.076309 96.6428937,119.927108 79,120.203415 L79,80.0019653 C97.1071803,79.9097609 117.907533,83.045327 139.357268,92.9108962 L141.307581,93.8326334 C143.4433,94.7552926 144.557279,97.2445055 143.721253,99.4574124" id="Fill-18" fill="#96C8EF"></path>
            </g>
        </g>
    </g>
</svg>