<?xml version="1.0" encoding="UTF-8"?>
<svg width="116px" height="165px" viewBox="0 0 116 165" version="1.1" xmlns="http://www.w3.org/2000/svg" xmlns:xlink="http://www.w3.org/1999/xlink">
    <!-- Generator: Sketch 59.1 (86144) - https://sketch.com -->
    <title>Group 18</title>
    <desc>Created with Sketch.</desc>
    <g id="Page-1" stroke="none" stroke-width="1" fill="none" fill-rule="evenodd">
        <g id="Careers" transform="translate(-201.000000, -2391.000000)">
            <g id="Group-18" transform="translate(201.000000, 2391.000000)">
                <polygon id="Fill-1" fill="#1E81CE" points="57.5105582 165 116 165 116 155.799504 48 142"></polygon>
                <polygon id="Fill-2" fill="#5AAAE7" points="87.8073001 155 116 155 116 127.249792 77 118"></polygon>
                <polygon id="Fill-3" fill="#5AAAE7" points="0 155.999798 0 165 58 165 58 155.999798 29.7070794 147"></polygon>
                <polygon id="Fill-4" fill="#5AAAE7" points="58.1179123 9 44 42 116 32.5713681 116 9"></polygon>
                <polygon id="Fill-5" fill="#96C8EF" points="0 9 0 32.5713681 58 42 58 9"></polygon>
                <polygon id="Fill-6" fill="#96C8EF" points="58.1179123 32 44 93.5004218 58.1179123 155 87.7650209 155 98.2727016 136.222018 116 126.832183 116 32"></polygon>
                <polygon id="Fill-7" fill="#FFFFFF" points="0 155 58 155 58 32 0 32"></polygon>
                <polygon id="Fill-8" fill="#FFFFFF" points="88 127 88 155 116 127"></polygon>
                <polygon id="Fill-9" fill="#595959" points="15 18 25 18 25 0 15 0"></polygon>
                <polygon id="Fill-10" fill="#595959" points="41 18 51 18 51 0 41 0"></polygon>
                <polygon id="Fill-11" fill="#383838" points="90 18 100 18 100 0 90 0"></polygon>
                <polygon id="Fill-12" fill="#383838" points="65 18 75 18 75 0 65 0"></polygon>
                <g id="Group-17" transform="translate(16.000000, 54.000000)">
                    <path d="M84.6119455,24.2474431 C84.6119455,31.038316 81.7657079,37.1712221 77.1879109,41.5620066 L42.4578366,75.7993768 L32.6563267,41.1563934 L42.4595198,7.49007293 C46.9165495,2.92881326 53.1707822,0.0874209945 60.1045941,0.0874209945 C73.6393713,0.0874209945 84.6119455,10.9046144 84.6119455,24.2474431" id="Fill-13" fill="#1C164D"></path>
                    <path d="M24.8144876,0.087798895 C11.2797104,0.087798895 0.307136139,10.9045724 0.307136139,24.2474011 C0.307136139,31.038274 3.15337376,37.1711801 7.72780446,41.5619646 L42.4582995,75.7993348 L42.4595619,7.49003094 C38.0025322,2.92877127 31.7449332,0.087798895 24.8144876,0.087798895" id="Fill-15" fill="#66ADDD"></path>
                </g>
            </g>
        </g>
    </g>
</svg>